Coordinates
version=1
nRows=7
nColumns=40
inDegrees=yes

Units are S.I. units (second, meters, Newtons, ...)
Angles are in degrees.

endheader
time	pelvis_tilt	pelvis_list	pelvis_rotation	pelvis_tx	pelvis_ty	pelvis_tz	hip_flexion_r	hip_adduction_r	hip_rotation_r	knee_angle_r	knee_angle_r_beta	ankle_angle_r	subtalar_angle_r	mtp_angle_r	hip_flexion_l	hip_adduction_l	hip_rotation_l	knee_angle_l	knee_angle_l_beta	ankle_angle_l	subtalar_angle_l	mtp_angle_l	lumbar_extension	lumbar_bending	lumbar_rotation	arm_flex_r	arm_add_r	arm_rot_r	elbow_flex_r	pro_sup_r	wrist_flex_r	wrist_dev_r	arm_flex_l	arm_add_l	arm_rot_l	elbow_flex_l	pro_sup_l	wrist_flex_l	wrist_dev_l
     53.35000000	     -6.68915670	     -6.75629245	      2.39857645	      1.07624079	      0.92715108	      0.51323156	     16.79065630	      3.24082000	    -16.92230341	     15.80186284	     15.80186284	      7.74528748	      1.21028524	     -1.36927070	     29.18742550	    -13.30980622	      5.45053517	     69.57343570	     69.57343570	      0.51783880	    -16.27082407	      5.07610386	    -12.07383843	      3.77828853	      2.48470583	      9.60191938	    -20.47364319	      2.59554605	     65.75610607	     45.38746095	      0.00000000	      0.00000000	      1.55228640	    -10.33006677	     -4.65679535	     84.83541769	     46.81905853	      0.00000000	      0.00000000
     53.36192857	     -6.89325038	     -6.86913218	      2.80838227	      1.07380540	      0.92719993	      0.51383791	     16.29910372	      3.41807028	    -17.30111420	     15.31183644	     15.31183644	      7.96281615	      1.45230825	     -1.72519996	     31.43374562	    -13.32697149	      5.66755303	     68.98449632	     68.98449632	      1.15352513	    -17.10112723	      5.41103433	    -11.96674946	      3.80101536	      1.99312990	     12.32418192	    -20.26254370	      2.89902704	     68.64431243	     45.29163458	      0.00000000	      0.00000000	      1.18842938	     -9.94800085	     -5.16932327	     80.06314168	     46.82315025	      0.00000000	      0.00000000
     53.37385714	     -7.05683919	     -6.99465399	      3.17881610	      1.07145235	      0.92727223	      0.51447893	     15.74964704	      3.69843494	    -17.29004539	     14.74488863	     14.74488863	      8.12301697	      1.11547974	     -1.88551650	     33.48646771	    -13.34884638	      5.80304921	     68.14996744	     68.14996744	      1.99413303	    -17.72124396	      6.43338183	    -11.91172338	      3.84929740	      1.81945762	     14.83048057	    -20.15686697	      3.04773499	     71.70599430	     45.19880262	      0.00000000	      0.00000000	      1.20805531	     -9.49537632	     -5.49166053	     74.97807104	     46.81321204	      0.00000000	      0.00000000
     53.38578571	     -7.20729673	     -7.09266486	      3.56022909	      1.06923323	      0.92734929	      0.51496989	     15.18296123	      3.93723415	    -17.31684635	     14.17247813	     14.17247813	      8.28147014	      0.85216411	     -2.03467949	     35.37135231	    -13.29826998	      5.88848849	     67.03976266	     67.03976266	      3.04246836	    -18.15063563	      8.11592992	    -11.87232497	      3.88249605	      1.75179823	     17.27206362	    -19.98365631	      2.88739735	     74.63219040	     45.12452374	      0.00000000	      0.00000000	      1.44538407	     -9.06812851	     -5.68035613	     69.75924171	     46.79422895	      0.00000000	      0.00000000
     53.39771429	     -7.29653389	     -7.18178709	      3.95013069	      1.06711913	      0.92741681	      0.51538076	     14.56869666	      4.15559685	    -17.38576824	     13.64521181	     13.64521181	      8.52219455	      0.70383296	     -2.06082433	     36.98358834	    -13.25132074	      5.88274130	     65.51702251	     65.51702251	      3.77627466	    -18.46658858	      8.95087242	    -11.94194601	      3.88903617	      1.13613744	     20.15128802	    -19.12410611	      2.57548498	     77.13473590	     45.06781719	      0.00000000	      0.00000000	      0.75372630	     -9.18966096	     -5.57039288	     66.46045222	     46.74564763	      0.00000000	      0.00000000
     53.40964286	     -7.43809137	     -7.16082326	      4.25063882	      1.06506227	      0.92749295	      0.51544074	     14.01458887	      4.24405728	    -17.34151083	     13.12455531	     13.12455531	      8.67935940	      0.49512036	     -2.29623554	     38.44979018	    -12.98521215	      5.82896374	     63.72295175	     63.72295175	      5.20758744	    -18.56080467	     11.74637419	    -11.87815380	      3.85313562	      1.82819792	     22.14070052	    -19.45769123	      2.24463707	     79.95615016	     45.00861600	      0.00000000	      0.00000000	      2.15193954	     -8.22746284	     -6.12566599	     59.46638735	     46.74084401	      0.00000000	      0.00000000
     53.42157143	     -7.47289531	     -7.11162946	      4.57939843	      1.06323179	      0.92761069	      0.51526023	     13.35363145	      4.27693576	    -17.39227196	     12.66734760	     12.66734760	      8.90274406	      0.42264070	     -2.31799400	     39.52436562	    -12.67413716	      5.73158203	     61.43110574	     61.43110574	      5.92334206	    -18.68553355	     12.33186924	    -12.00532894	      3.74632351	      1.37622919	     24.91347890	    -18.59837735	      1.91008034	     82.32367757	     44.95832055	      0.00000000	      0.00000000	      1.45590480	     -8.27777673	     -6.01856147	     56.67274316	     46.69783224	      0.00000000	      0.00000000
